# xmcd
#
# Track frame offsets:
#	150
#	17641
#	32041
#	51243
#	69192
#	90899
#	106495
#	120366
#	140399
#	158389
#
# Disc length: 2474 seconds
#
# Revision: 0
# Processed by: cddbd v1.5.2PL0 Copyright (c) Steve Scherf et al.
# Submitted via: EasyCDDAExtractor 12.1.0.1
#
DISCID=6c09a80a
DTITLE=Reino and the Rhinos - Kohti huomista
DYEAR=2012
DGENRE=
TTITLE0=Kohti huomista
TTITLE1=Kuulut unelmiin
TTITLE2=Rakkaus on mennyt pieleen
TTITLE3=Aurinko
TTITLE4=Varo selk‰‰s nuori mies
TTITLE5=Raha
TTITLE6=Rauhan annoit
TTITLE7=Kunnes tyhjyys meid‰t saa
TTITLE8=Mamma ja Faija
TTITLE9=Tuu mun luo
EXTD=
EXTT0=
EXTT1=
EXTT2=
EXTT3=
EXTT4=
EXTT5=
EXTT6=
EXTT7=
EXTT8=
EXTT9=
PLAYORDER=
